<?xml version="1.0" standalone="no"?>
<!DOCTYPE svg PUBLIC "-//W3C//DTD SVG 20010904//EN"
 "http://www.w3.org/TR/2001/REC-SVG-20010904/DTD/svg10.dtd">
<svg version="1.0" xmlns="http://www.w3.org/2000/svg"
 width="571.000000pt" height="571.000000pt" viewBox="0 0 571.000000 571.000000"
 preserveAspectRatio="xMidYMid meet">
<metadata>
Created by potrace 1.14, written by Peter Selinger 2001-2017
</metadata>
<g transform="translate(0.000000,571.000000) scale(0.100000,-0.100000)"
fill="#000000" stroke="none">
<path d="M2837 5654 c-1 -1 -42 -5 -92 -9 -49 -4 -97 -9 -105 -10 -8 -2 -51
-8 -95 -15 -422 -62 -881 -255 -1232 -517 -129 -96 -172 -134 -294 -253 -370
-364 -621 -796 -749 -1287 -16 -62 -32 -125 -34 -140 -3 -14 -10 -49 -15 -77
-6 -28 -12 -71 -16 -96 -3 -25 -7 -56 -10 -69 -21 -110 -22 -545 -1 -657 2
-10 7 -41 10 -69 4 -27 11 -72 16 -100 5 -27 12 -61 14 -75 3 -14 7 -34 10
-45 2 -11 9 -42 16 -70 43 -190 183 -540 286 -712 78 -130 112 -182 185 -280
228 -303 486 -538 805 -731 304 -183 668 -317 1004 -368 25 -3 53 -8 64 -10
141 -26 609 -26 767 1 13 2 51 9 84 15 33 5 74 13 90 15 95 17 406 107 430
125 6 4 28 13 50 20 55 18 229 101 339 162 449 252 840 648 1087 1103 21 40
39 75 39 78 0 4 -168 90 -372 193 -633 317 -2123 1066 -2126 1070 -4 3 513
260 1368 681 239 117 444 219 455 225 11 6 70 36 130 66 445 220 555 275 555
279 0 2 -14 30 -32 61 -17 31 -40 73 -51 92 -10 19 -56 91 -102 160 -345 519
-861 911 -1450 1103 -111 36 -281 81 -345 91 -19 3 -46 8 -60 11 -14 3 -45 8
-70 11 -25 3 -56 7 -70 9 -71 13 -473 28 -483 19z"/>
</g>
</svg>
